{"title":"Mere Yaar Kaminey 2014 [DvdRip 486MB] [Movies2Fun]","uid":9924545,"size":510517809,"categoryP":"video","categoryS":"movies","magnet":"?xt=urn:btih:2c1b1d1dd42f091093630e77142861d21bbf1d22&amp;dn=Mere+Yaar+Kaminey+2014+%5BDvdRip+486MB%5D+%5BMovies2Fun%5D&amp;tr=udp%3A%2F%2Ftracker.openbittorrent.com%3A80&amp;tr=udp%3A%2F%2Fopen.demonii.com%3A1337&amp;tr=udp%3A%2F%2Ftracker.coppersurfer.tk%3A6969&amp;tr=udp%3A%2F%2Fexodus.desync.com%3A6969","seeders":1,"leechers":0,"uploader":"taztoor","files":1,"time":1397002352,"description":"Download Mere Yaar Kaminey 2014\n\nGeneral\nComplete name : Mere Yaar Kaminey 2014 [DvdRip 486MB] [Movies2Fun].mp4\nFormat : MPEG-4\nFormat profile : Base Media / Version 2\nCodec ID : mp42\nFile size : 487 MiB\nDuration : 2h 9mn\nOverall bit rate mode : Variable\nOverall bit rate : 526 Kbps\nEncoded date : UTC 2014-02-03 11:36:04\nTagged date : UTC 2014-02-03 11:36:04\n\nVideo\nID : 1\nFormat : AVC\nFormat/Info : Advanced Video Codec\nFormat profile : &lt;a class=&quot;__cf_email__&quot; href=&quot;/cdn-cgi/l/email-protection&quot; data-cfemail=&quot;c785a6b4a2abaea9a2878bf4e9f7&quot;&gt;[email&amp;#160;protected]&lt;/a&gt;&lt;script cf-hash='f9e31' type=&quot;text/javascript&quot;&gt;\n/* &lt;![CDATA[ */!function(){try{var t=&quot;currentScript&quot;in document?document.currentScript:function(){for(var t=document.getElementsByTagName(&quot;script&quot;),e=t.length;e--;)if(t[e].getAttribute(&quot;cf-hash&quot;))return t[e]}();if(t&amp;&amp;t.previousSibling){var e,r,n,i,c=t.previousSibling,a=c.getAttribute(&quot;data-cfemail&quot;);if(a){for(e=&quot;&quot;,r=parseInt(a.substr(0,2),16),n=2;a.length-n;n+=2)i=parseInt(a.substr(n,2),16)^r,e+=String.fromCharCode(i);e=document.createTextNode(e),c.parentNode.replaceChild(e,c)}}}catch(u){}}();/* ]]&gt; */&lt;/script&gt;\nFormat settings, CABAC : No\nFormat settings, ReFrames : 1 frame\nFormat settings, GOP : M=1, N=60\nCodec ID : avc1\nCodec ID/Info : Advanced Video Coding\nDuration : 2h 9mn\nBit rate : 428 Kbps\nMaximum bit rate : 1 624 Kbps\nWidth : 640 pixels\nHeight : 360 pixels\nDisplay aspect ratio : 16:9\nFrame rate mode : Constant\nFrame rate : 25.000 fps\nColor space : YUV\nChroma subsampling : 4:2:0\nBit depth : 8 bits\nScan type : Progressive\nBits/(Pixel*Frame) : 0.074\nStream size : 396 MiB (81%)\nTagged date : UTC 2014-02-03 11:37:10\n\nAudio\nID : 2\nFormat : AAC\nFormat/Info : Advanced Audio Codec\nFormat profile : LC\nCodec ID : 40\nDuration : 2h 9mn\nBit rate mode : Variable\nBit rate : 96.0 Kbps\nMaximum bit rate : 104 Kbps\nChannel count : 2 channels\nChannel positions : Front: L R\nSampling rate : 44.1 KHz\nCompression mode : Lossy\nStream size : 88.8 MiB (18%)\nTitle : IsoMedia File Produced by Google, 5-11-2011\nEncoded date : UTC 2014-02-03 11:36:45\nTagged date : UTC 2014-02-03 11:37:10","torrent":{"xt":"urn:btih:2c1b1d1dd42f091093630e77142861d21bbf1d22","amp;dn":"Mere+Yaar+Kaminey+2014+%5BDvdRip+486MB%5D+%5BMovies2Fun%5D","amp;tr":["udp%3A%2F%2Ftracker.openbittorrent.com%3A80","udp%3A%2F%2Fopen.demonii.com%3A1337","udp%3A%2F%2Ftracker.coppersurfer.tk%3A6969","udp%3A%2F%2Fexodus.desync.com%3A6969"],"infoHash":"2c1b1d1dd42f091093630e77142861d21bbf1d22","infoHashBuffer":{"type":"Buffer","data":[44,27,29,29,212,47,9,16,147,99,14,119,20,40,97,210,27,191,29,34]},"announce":[],"urlList":[]}}